<?xml version="1.0" encoding="utf-8"?>
<svg xmlns="http://www.w3.org/2000/svg" viewBox="0 0 375 100">
  <!-- J -->
  <path fill="#E57125" d="M 5,8 H 78 V 60 C 78,78 62,90 42,90 H 32 C 12,90 5,78 5,60 V 42 H 27 V 58 C 27,67 32,74 40,74 C 48,74 56,67 56,58 V 30 H 5 Z"/>
  <!-- A -->
  <path fill="#E57125" fill-rule="evenodd" d="M 95,90 L 136,8 L 177,90 H 157 L 148,58 H 124 L 115,90 Z M 128,48 L 136,28 L 144,48 Z"/>
  <!-- W -->
  <path fill="#CF4E22" d="M 193,8 L 220,90 L 247,30 L 274,90 L 301,8 H 283 L 274,66 L 247,44 L 220,66 L 211,8 Z"/>
  <!-- S -->
  <path fill="#CF4E22" d="M 370,32 V 24 C 370,14 361,8 347,8 H 341 C 327,8 318,14 318,24 C 318,37 325,44 339,48 L 349,51 C 357,53 363,60 363,68 C 363,76 358,82 350,82 C 342,82 337,76 337,68 V 62 H 318 V 68 C 318,82 327,90 341,90 H 347 C 361,90 370,82 370,68 C 370,55 363,48 347,44 L 337,41 C 329,39 323,34 323,26 C 323,19 328,14 336,14 C 343,14 347,19 347,26 V 32 Z"/>
</svg>
